HIERARCHY
ROOT Hips
{
	OFFSET 0.000000 0.000000 0.000000 
	CHANNELS 6 Xposition Yposition Zposition Yrotation Zrotation Xrotation 
	JOINT Lumbar
	{
		OFFSET 0.000000 0.000000 0.000000 
		CHANNELS 3 Zrotation Xrotation Yrotation
		JOINT Neck
		{
			OFFSET 0.000000 0.445665 0.000000 
			CHANNELS 3 Zrotation Xrotation Yrotation
			End Site
			{
				OFFSET 0.000000 0.227535 0.000000 
			}
		}
		JOINT RightShoulder
		{
			OFFSET 0.019635 0.377685 0.194865 
			CHANNELS 3 Zrotation Xrotation Yrotation
			JOINT RightElbow
			{
				OFFSET 0.000000 -0.243375 0.000000 
				CHANNELS 2 Zrotation Yrotation
				JOINT RightWrist
				{
					OFFSET 0.000000 -0.264825 0.000000 
					CHANNELS 2 Zrotation Xrotation
					End Site
					{
						OFFSET 0.006600 -0.176220 0.000990 
					}
				}
			}
		}
		JOINT LeftShoulder
		{
			OFFSET 0.019635 0.377685 -0.194865 
			CHANNELS 3 Zrotation Xrotation Yrotation
			JOINT LeftElbow
			{
				OFFSET 0.000000 -0.243375 0.000000 
				CHANNELS 2 Zrotation Yrotation
				JOINT LeftWrist
				{
					OFFSET 0.000000 -0.264825 0.000000 
					CHANNELS 2 Zrotation Xrotation
					End Site
					{
						OFFSET 0.006600 -0.176220 -0.000990 
					}
				}
			}
		}
	}
	JOINT RightHip
	{
		OFFSET 0.052140 -0.069960 0.075570 
		CHANNELS 3 Zrotation Xrotation Yrotation
		JOINT RightKnee
		{
			OFFSET 0.000000 -0.402270 0.000000 
			CHANNELS 1 Zrotation
			JOINT RightAnkle
			{
				OFFSET 0.000000 -0.404085 0.000000 
				CHANNELS 3 Zrotation Xrotation Yrotation
				End Site
				{
					OFFSET 0.204105 -0.089430 0.008415 
				}
			}
		}
	}
	JOINT LeftHip
	{
		OFFSET 0.052140 -0.069960 -0.075570 
		CHANNELS 3 Zrotation Xrotation Yrotation
		JOINT LeftKnee
		{
			OFFSET 0.000000 -0.402270 0.000000 
			CHANNELS 1 Zrotation
			JOINT LeftAnkle
			{
				OFFSET 0.000000 -0.404085 0.000000 
				CHANNELS 3 Zrotation Xrotation Yrotation
				End Site
				{
					OFFSET 0.204105 -0.089430 -0.008415 
				}
			}
		}
	}
}
MOTION
Frames: 16
Frame Time: 0.02
0.93811 0.15835 0.23035 81.28906 -35.35168 -14.28778 45.49766 -1.34298 1.13041 -2.88837 0.75893 -0.83079 -10.89037 -23.28955 43.78793 107.65529 87.26482 5.54078 -0.99607 -11.46333 22.49024 -45.03262 111.53617 -108.81651 9.65825 -3.98015 53.05708 0.40845 -2.83393 -33.90513 -7.08822 -2.12575 -1.74051 45.09722 13.43086 -4.71297 -20.87304 -9.49414 3.77222 2.75741
0.92971 0.15713 0.23321 80.39317 -35.27175 -14.34069 45.44446 -1.39115 0.75554 -2.90737 0.64475 -0.83079 -10.9548 -23.10848 43.69639 107.82645 87.46652 5.674 -0.08901 -10.66252 23.24517 -45.83205 111.85405 -109.14084 10.32722 -3.61468 53.65753 0.05511 -2.66234 -34.24843 -7.15596 -2.05795 -1.706 44.99188 13.17851 -3.52269 -20.7543 -9.34454 3.76955 2.74406
0.92146 0.15604 0.23675 79.48921 -35.25061 -14.40807 45.36971 -1.43453 0.44289 -2.8738 0.50238 -0.83079 -11.01463 -22.8556 43.76593 107.98772 87.66152 5.72064 1.07574 -9.73879 24.15033 -46.81875 112.19811 -108.6772 10.79182 -3.43445 54.32114 -0.26521 -2.54712 -34.46566 -7.23317 -1.99422 -1.67406 44.94202 12.98795 -2.22523 -20.48374 -9.20324 3.73419 2.71163
0.91315 0.15489 0.24003 78.58485 -35.20699 -14.47133 45.30189 -1.47915 0.10245 -2.85358 0.37261 -0.83079 -11.06575 -22.63677 43.79754 108.15651 87.86022 5.78697 2.09232 -8.8837 24.98304 -47.72689 112.52819 -108.57017 11.32899 -3.1684 54.95819 -0.5907 -2.39066 -34.72558 -7.30626 -1.93056 -1.64204 44.8891 12.76304 -1.02717 -20.3011 -9.06439 3.71929 2.69161
0.90477 0.15375 0.24312 77.6991 -35.14796 -14.52422 45.24532 -1.52693 -0.24248 -2.87587 0.24011 -0.83079 -11.16151 -22.41055 43.68416 108.31471 88.06468 5.93496 3.24516 -7.97198 25.83633 -48.61242 112.86937 -108.49219 11.95856 -2.89432 55.59179 -0.95935 -2.29932 -35.04503 -7.37968 -1.85816 -1.60514 44.74589 12.56219 0.38701 -20.03488 -8.90026 3.68061 2.6557
0.8966 0.15261 0.24677 76.77246 -35.13383 -14.6022 45.16104 -1.56728 -0.56114 -2.79931 0.10787 -0.83079 -11.16415 -22.18423 43.90527 108.49069 88.25204 5.8951 4.17343 -7.14967 26.68115 -49.58511 113.19234 -108.15829 12.34628 -2.68593 56.24305 -1.22972 -2.09129 -35.21056 -7.45378 -1.80522 -1.57913 44.80156 12.32835 1.37949 -19.90622 -8.79018 3.68312 2.64802
0.88887 0.15137 0.25183 75.73124 -35.23153 -14.74487 44.99907 -1.58858 -0.83718 -2.44528 -0.01537 -0.83079 -10.90376 -21.96284 45.06339 108.73196 88.39681 5.32918 4.41806 -6.60899 27.46634 -50.78339 113.46318 -107.30632 12.09461 -2.62381 56.95587 -1.23522 -1.48149 -34.99346 -7.53318 -1.8046 -1.58248 45.40644 11.96917 1.13365 -20.21796 -8.82979 3.81516 2.72756
0.88138 0.15011 0.25743 74.65008 -35.37154 -14.91228 44.81127 -1.60267 -1.08591 -1.99695 -0.13708 -0.83079 -10.55131 -21.74628 46.54275 108.98903 88.5229 4.58219 4.42697 -6.16205 28.23643 -52.05686 113.71331 -106.22297 11.60928 -2.62215 57.67792 -1.14284 -0.76314 -34.62538 -7.61178 -1.8237 -1.59683 46.20658 11.57827 0.46745 -20.66991 -8.92292 3.98844 2.83535
0.87385 0.14888 0.26277 73.58865 -35.49051 -15.06934 44.63943 -1.61992 -1.33755 -1.60319 -0.25987 -0.83079 -10.24549 -21.53552 47.84073 109.22936 88.6544 3.93681 4.5436 -5.66966 29.01383 -53.27543 113.9701 -105.24298 11.24398 -2.58787 58.37764 -1.09622 -0.13782 -34.31766 -7.68694 -1.83394 -1.60614 46.9083 11.21458 0.02436 -21.04311 -8.98983 4.13786 2.92726
0.86603 0.14758 0.26819 72.51811 -35.61963 -15.22401 44.44866 -1.63728 -1.6277 -1.15792 -0.38214 -0.83079 -9.91874 -21.28809 49.29421 109.50862 88.79874 3.20747 4.66752 -5.18521 29.79836 -54.58814 114.24087 -104.23714 10.8137 -2.57988 59.15889 -1.04366 0.66696 -34.03506 -7.77856 -1.84336 -1.61541 47.65346 10.79921 -0.54923 -21.47415 -9.06512 4.30777 3.0314
0.85888 0.14643 0.27355 71.4599 -35.73638 -15.38825 44.29191 -1.65303 -1.83126 -0.79847 -0.5047 -0.83079 -9.61445 -21.11962 50.49739 109.71207 88.91204 2.61038 4.71599 -4.70776 30.55784 -55.72013 114.47548 -103.24834 10.46533 -2.53114 59.76828 -0.97993 1.12822 -33.67254 -7.83548 -1.85977 -1.62773 48.35302 10.48289 -0.95358 -21.82028 -9.13549 4.44518 3.11696
0.85342 0.1457 0.2786 70.4225 -35.81266 -15.58198 44.23181 -1.6638 -1.80867 -0.69705 -0.62844 -0.83079 -9.38909 -21.16439 50.93516 109.69032 88.94379 2.42998 4.62054 -4.23108 31.29031 -56.33326 114.63032 -102.29902 10.40575 -2.338 59.92902 -0.91546 0.58276 -33.07075 -7.79755 -1.8852 -1.64228 48.8853 10.44979 -0.77757 -21.89627 -9.17988 4.48332 3.14499
0.84864 0.14513 0.28356 69.40348 -35.87404 -15.78267 44.20767 -1.67358 -1.69905 -0.68564 -0.75235 -0.83079 -9.1906 -21.28958 51.1083 109.59403 88.94543 2.38825 4.45509 -3.75844 31.98999 -56.76091 114.74656 -101.39156 10.43658 -2.10439 59.91073 -0.84213 -0.30568 -32.40503 -7.72456 -1.91799 -1.66014 49.36361 10.51679 -0.41955 -21.88309 -9.21738 4.48741 3.15334
0.8436 0.14448 0.28855 68.39081 -35.93921 -15.97415 44.16947 -1.68546 -1.62542 -0.63496 -0.87601 -0.83079 -8.98345 -21.38054 51.39899 109.53977 88.96062 2.27841 4.31545 -3.28122 32.6789 -57.27384 114.87044 -100.50989 10.42351 -1.89922 59.95582 -0.76904 -1.01645 -31.80528 -7.66701 -1.95095 -1.6788 49.8619 10.53638 -0.15165 -21.91231 -9.25747 4.50688 3.17032
0.83833 0.14385 0.29358 67.31355 -36.01823 -16.19214 44.12049 -1.69046 -1.56572 -0.57514 -1.00042 -0.83079 -8.75796 -21.46145 51.7126 109.45161 88.97409 2.18266 4.19154 -2.81713 33.47639 -57.78659 115.0353 -99.42702 10.41425 -1.6525 60.07788 -0.7086 -1.81668 -31.04318 -7.61134 -1.96973 -1.68823 50.38556 10.56299 0.13433 -21.93808 -9.30148 4.52811 3.1895
0.83372 0.14322 0.2985 66.37709 -36.0646 -16.35612 44.10315 -1.70922 -1.45684 -0.5556 -1.12325 -0.83079 -8.57844 -21.58283 51.91119 109.41619 88.98628 2.09417 4.02323 -2.32752 34.03935 -58.2531 115.10604 -98.78059 10.42133 -1.4836 59.9961 -0.62082 -2.51197 -30.60746 -7.54366 -2.0196 -1.71739 50.84187 10.59914 0.42956 -21.94845 -9.33531 4.53713 3.19916
